<?xml version="1.0" encoding="UTF-8" standalone="no"?>
<!DOCTYPE svg PUBLIC "-//W3C//DTD SVG 1.1//EN" "http://www.w3.org/Graphics/SVG/1.1/DTD/svg11.dtd">
<svg width="100%" height="100%" viewBox="0 0 568 250" version="1.1" xmlns="http://www.w3.org/2000/svg" xmlns:xlink="http://www.w3.org/1999/xlink" xml:space="preserve" xmlns:serif="http://www.serif.com/" style="fill-rule:evenodd;clip-rule:evenodd;stroke-linejoin:round;stroke-miterlimit:2;">
    <g transform="matrix(10.4167,0,0,10.4167,284,125)">
        <g id="devices-24px" transform="matrix(1,0,0,1,-12,-12)">
            <path d="M4,6L22,6L22,4L4,4C2.9,4 2,4.9 2,6L2,17L0,17L0,20L14,20L14,17L4,17L4,6ZM23,8L17,8C16.45,8 16,8.45 16,9L16,19C16,19.55 16.45,20 17,20L23,20C23.55,20 24,19.55 24,19L24,9C24,8.45 23.55,8 23,8ZM22,17L18,17L18,10L22,10L22,17Z" style="fill:white;fill-rule:nonzero;"/>
        </g>
        <g id="devices-24px1" serif:id="devices-24px">
        </g>
    </g>
</svg>
