<?xml version="1.0" encoding="UTF-8" standalone="no"?>
<!DOCTYPE svg PUBLIC "-//W3C//DTD SVG 1.1//EN" "http://www.w3.org/Graphics/SVG/1.1/DTD/svg11.dtd">
<svg width="100%" height="100%" viewBox="0 0 2367 1042" version="1.1" xmlns="http://www.w3.org/2000/svg" xmlns:xlink="http://www.w3.org/1999/xlink" xml:space="preserve" xmlns:serif="http://www.serif.com/" style="fill-rule:evenodd;clip-rule:evenodd;stroke-linejoin:round;stroke-miterlimit:2;">
    <g transform="matrix(4.16667,0,0,4.16667,0,-583.333)">
        <g transform="matrix(0.98702,0,0,0.98702,3.80924,144.217)">
            <path d="M484.618,3.817L484.589,3.899L83.161,3.899L83.133,3.817C83.093,3.817 83.025,4.291 83.025,7.515C82.759,13.303 75.919,11.783 75.625,16.625L75.625,242.593L492.125,242.593L492.125,16.625C491.832,11.783 484.992,13.303 484.725,7.515C484.725,4.291 484.658,3.817 484.618,3.817ZM481.889,6.734C481.89,6.971 481.89,7.231 481.89,7.515L481.89,7.581L481.893,7.646C482.108,12.292 485.381,14.025 487.336,15.062C489.015,15.951 489.244,16.185 489.291,16.725L489.291,239.758L78.46,239.758L78.46,16.725C78.507,16.185 78.735,15.951 80.414,15.062C82.37,14.025 85.643,12.292 85.857,7.646L85.86,7.581L85.86,7.515C85.86,7.231 85.86,6.971 85.861,6.734L481.889,6.734Z" style="fill:white;fill-rule:nonzero;"/>
        </g>
        <g transform="matrix(0.98702,0,0,0.98702,3.80924,144.217)">
            <path d="M92.625,229.148C92.625,232.462 95.312,235.148 98.625,235.148L470.125,235.148C473.439,235.148 476.125,232.462 476.125,229.148L476.125,19.149C476.125,15.835 473.439,13.149 470.125,13.149L98.625,13.149C95.312,13.149 92.625,15.835 92.625,19.149L92.625,229.148Z" style="fill:white;"/>
        </g>
        <g transform="matrix(0.98702,0,0,0.98702,3.80924,144.217)">
            <path d="M75.962,3.673C75.71,3.673 75.545,3.695 75.545,3.695L47.877,3.695C22.347,3.695 1.409,23.686 0.02,48.875C-0.025,48.979 0.02,194.737 0.02,194.737C0.02,221.172 21.448,242.593 47.877,242.593L78.494,242.593L78.494,5.813C78.494,3.9 76.776,3.673 75.962,3.673ZM75.545,6.53L75.66,6.543L75.66,239.758L47.877,239.758C23.052,239.758 2.855,219.562 2.855,194.736C2.854,193.308 2.81,52.362 2.853,48.992C4.187,25.178 23.956,6.53 47.877,6.53L75.545,6.53Z" style="fill:white;fill-rule:nonzero;"/>
        </g>
        <g transform="matrix(0.98702,0,0,0.98702,3.80924,144.217)">
            <path d="M491.788,3.673C490.975,3.673 489.256,3.9 489.256,5.813L489.256,242.593L519.874,242.593C546.302,242.593 567.73,221.172 567.73,194.737C567.73,194.737 567.777,48.979 567.73,48.875C566.341,23.686 545.404,3.695 519.874,3.695L492.206,3.695C492.206,3.695 492.041,3.673 491.788,3.673ZM519.874,6.53C543.794,6.53 563.564,25.178 564.897,48.992C564.941,52.362 564.896,193.308 564.895,194.737C564.895,219.562 544.699,239.758 519.874,239.758L492.091,239.758L492.091,6.53L519.874,6.53Z" style="fill:white;fill-rule:nonzero;"/>
        </g>
        <g transform="matrix(0.98702,0,0,0.98702,3.80924,144.217)">
            <path d="M535.073,46.249C535.073,51.007 531.215,54.865 526.458,54.865C521.698,54.865 517.841,51.007 517.841,46.249C517.841,41.49 521.698,37.632 526.458,37.632C531.215,37.632 535.073,41.49 535.073,46.249Z" style="fill:white;"/>
        </g>
        <g transform="matrix(0.98702,0,0,0.98702,3.80924,144.217)">
            <path d="M535.127,81.875C535.127,86.632 531.27,90.49 526.512,90.49C521.753,90.49 517.896,86.632 517.896,81.875C517.896,77.117 521.753,73.259 526.512,73.259C531.27,73.259 535.127,77.117 535.127,81.875Z" style="fill:white;"/>
        </g>
        <g transform="matrix(0.98702,0,0,0.98702,3.80924,144.217)">
            <path d="M544.829,72.601C540.07,72.601 536.212,68.744 536.212,63.986C536.212,59.226 540.07,55.369 544.829,55.369C549.586,55.369 553.444,59.226 553.444,63.986C553.444,68.744 549.586,72.601 544.829,72.601Z" style="fill:white;"/>
        </g>
        <g transform="matrix(0.98702,0,0,0.98702,3.80924,144.217)">
            <path d="M507.352,72.601C502.592,72.601 498.735,68.744 498.735,63.986C498.735,59.226 502.592,55.369 507.352,55.369C512.11,55.369 515.966,59.226 515.966,63.986C515.966,68.744 512.11,72.601 507.352,72.601Z" style="fill:white;"/>
        </g>
        <g transform="matrix(0.98702,0,0,0.98702,3.80924,144.217)">
            <rect x="121.625" y="31.149" width="324.5" height="183.999" style="fill:white;"/>
        </g>
        <g transform="matrix(0.98702,0,0,0.98702,3.80924,144.217)">
            <path d="M504.125,20.676L500.407,20.676L500.407,25.233L495.85,25.233L495.85,28.952L500.407,28.952L500.407,33.508L504.125,33.508L504.125,28.952L508.682,28.952L508.682,25.233L504.125,25.233L504.125,20.676Z" style="fill:white;fill-rule:nonzero;"/>
        </g>
        <g transform="matrix(0.98702,0,0,0.98702,3.80924,144.217)">
            <path d="M523.202,49.8L525.948,46.099L523.526,42.698L524.645,42.698L525.933,44.519C526.202,44.898 526.392,45.188 526.505,45.392C526.664,45.133 526.851,44.863 527.067,44.583L528.497,42.698L529.518,42.698L527.024,46.045L529.712,49.8L528.549,49.8L526.762,47.266C526.662,47.121 526.558,46.962 526.452,46.792C526.293,47.05 526.18,47.228 526.113,47.324L524.33,49.8L523.202,49.8Z" style="fill:white;fill-rule:nonzero;"/>
        </g>
        <g transform="matrix(0.98702,0,0,0.98702,3.80924,144.217)">
            <path d="M506.833,67.537L506.833,64.528L504.096,60.434L505.239,60.434L506.639,62.576C506.897,62.976 507.137,63.376 507.36,63.777C507.573,63.406 507.833,62.988 508.135,62.522L509.512,60.434L510.606,60.434L507.772,64.528L507.772,67.537L506.833,67.537Z" style="fill:white;fill-rule:nonzero;"/>
        </g>
        <g transform="matrix(0.98702,0,0,0.98702,3.80924,144.217)">
            <path d="M543.554,64.62L545.962,64.62L545.221,62.653C544.995,62.056 544.827,61.564 544.717,61.18C544.626,61.636 544.5,62.087 544.334,62.537L543.554,64.62ZM541.505,67.537L544.233,60.434L545.246,60.434L548.152,67.537L547.082,67.537L546.253,65.385L543.284,65.385L542.503,67.537L541.505,67.537Z" style="fill:white;fill-rule:nonzero;"/>
        </g>
        <g transform="matrix(0.98702,0,0,0.98702,3.80924,144.217)">
            <path d="M524.769,84.587L526.538,84.587C526.841,84.587 527.054,84.577 527.177,84.554C527.393,84.515 527.575,84.451 527.719,84.36C527.865,84.269 527.985,84.138 528.079,83.965C528.171,83.792 528.218,83.593 528.218,83.367C528.218,83.102 528.151,82.873 528.015,82.677C527.879,82.482 527.691,82.344 527.451,82.265C527.21,82.185 526.864,82.146 526.412,82.146L524.769,82.146L524.769,84.587ZM524.769,81.308L526.305,81.308C526.722,81.308 527.02,81.281 527.202,81.226C527.44,81.155 527.621,81.037 527.742,80.873C527.863,80.708 527.923,80.5 527.923,80.251C527.923,80.016 527.867,79.808 527.753,79.629C527.64,79.451 527.479,79.328 527.269,79.261C527.059,79.195 526.699,79.162 526.189,79.162L524.769,79.162L524.769,81.308ZM523.83,85.425L523.83,78.324L526.494,78.324C527.037,78.324 527.472,78.396 527.799,78.54C528.127,78.683 528.384,78.904 528.57,79.203C528.755,79.501 528.848,79.814 528.848,80.14C528.848,80.445 528.766,80.73 528.601,80.998C528.437,81.266 528.188,81.482 527.855,81.647C528.285,81.773 528.615,81.988 528.846,82.292C529.077,82.595 529.193,82.954 529.193,83.367C529.193,83.7 529.123,84.009 528.982,84.294C528.841,84.581 528.667,84.8 528.46,84.957C528.254,85.111 527.995,85.228 527.683,85.307C527.372,85.386 526.99,85.425 526.538,85.425L523.83,85.425Z" style="fill:white;fill-rule:nonzero;"/>
        </g>
        <g transform="matrix(0.98702,0,0,0.98702,3.80924,144.217)">
            <path d="M544.989,130.258C544.989,140.402 536.765,148.626 526.621,148.626C516.476,148.626 508.252,140.402 508.252,130.258C508.252,120.114 516.476,111.89 526.621,111.89C536.765,111.89 544.989,120.114 544.989,130.258Z" style="fill:white;"/>
        </g>
        <g transform="matrix(0.98702,0,0,0.98702,3.80924,144.217)">
            <path d="M539.93,130.258C539.93,137.608 533.97,143.566 526.621,143.566C519.271,143.566 513.31,137.608 513.31,130.258C513.31,122.908 519.271,116.95 526.621,116.95C533.97,116.95 539.93,122.908 539.93,130.258Z" style="fill:white;"/>
        </g>
        <g transform="matrix(0.98702,0,0,0.98702,3.80924,144.217)">
            <path d="M526.621,116.95L526.621,111.89" style="fill:none;"/>
        </g>
        <g transform="matrix(0.98702,0,0,0.98702,3.80924,144.217)">
            <path d="M513.313,130.259L508.252,130.259" style="fill:none;"/>
        </g>
        <g transform="matrix(0.98702,0,0,0.98702,3.80924,144.217)">
            <path d="M526.622,143.566L526.622,148.627" style="fill:none;"/>
        </g>
        <g transform="matrix(0.98702,0,0,0.98702,3.80924,144.217)">
            <path d="M539.929,130.258L544.99,130.258" style="fill:none;"/>
        </g>
        <g transform="matrix(0.98702,0,0,0.98702,3.80924,144.217)">
            <path d="M522.918,175.499C522.918,180.825 518.601,185.142 513.276,185.142C507.951,185.142 503.633,180.825 503.633,175.499C503.633,170.174 507.951,165.856 513.276,165.856C518.601,165.856 522.918,170.174 522.918,175.499Z" style="fill:white;"/>
        </g>
        <g transform="matrix(0.98702,0,0,0.98702,3.80924,144.217)">
            <path d="M59.615,63.884C59.615,74.029 51.391,82.252 41.246,82.252C31.102,82.252 22.879,74.029 22.879,63.884C22.879,53.74 31.102,45.517 41.246,45.517C51.391,45.517 59.615,53.74 59.615,63.884Z" style="fill:white;"/>
        </g>
        <g transform="matrix(0.98702,0,0,0.98702,3.80924,144.217)">
            <path d="M54.557,63.884C54.557,71.234 48.596,77.193 41.246,77.193C33.897,77.193 27.938,71.234 27.938,63.884C27.938,56.535 33.897,50.576 41.246,50.576C48.596,50.576 54.557,56.535 54.557,63.884Z" style="fill:white;"/>
        </g>
        <g transform="matrix(0.98702,0,0,0.98702,3.80924,144.217)">
            <path d="M41.246,50.576L41.246,45.517" style="fill:none;"/>
        </g>
        <g transform="matrix(0.98702,0,0,0.98702,3.80924,144.217)">
            <path d="M27.939,63.885L22.879,63.885" style="fill:none;"/>
        </g>
        <g transform="matrix(0.98702,0,0,0.98702,3.80924,144.217)">
            <path d="M41.248,77.193L41.248,82.253" style="fill:none;"/>
        </g>
        <g transform="matrix(0.98702,0,0,0.98702,3.80924,144.217)">
            <path d="M54.555,63.884L59.615,63.884" style="fill:none;"/>
        </g>
        <g transform="matrix(0.98702,0,0,0.98702,3.80924,144.217)">
            <path d="M50.307,112.884C50.307,117.643 46.449,121.5 41.691,121.5C36.932,121.5 33.074,117.643 33.074,112.884C33.074,108.126 36.932,104.269 41.691,104.269C46.449,104.269 50.307,108.126 50.307,112.884Z" style="fill:white;"/>
        </g>
        <g transform="matrix(0.98702,0,0,0.98702,3.80924,144.217)">
            <path d="M50.307,148.927C50.307,153.686 46.449,157.543 41.691,157.543C36.932,157.543 33.074,153.686 33.074,148.927C33.074,144.169 36.932,140.312 41.691,140.312C46.449,140.312 50.307,144.169 50.307,148.927Z" style="fill:white;"/>
        </g>
        <g transform="matrix(0.98702,0,0,0.98702,3.80924,144.217)">
            <path d="M22.781,139.522C18.023,139.522 14.166,135.664 14.166,130.906C14.166,126.148 18.023,122.29 22.781,122.29C27.539,122.29 31.397,126.148 31.397,130.906C31.397,135.664 27.539,139.522 22.781,139.522Z" style="fill:white;"/>
        </g>
        <g transform="matrix(0.98702,0,0,0.98702,3.80924,144.217)">
            <rect x="47.465" y="167.693" width="14.691" height="14.692" style="fill:white;"/>
        </g>
        <g transform="matrix(0.98702,0,0,0.98702,3.80924,144.217)">
            <path d="M51.096,130.906C51.096,126.148 54.953,122.29 59.711,122.29C64.47,122.29 68.327,126.148 68.327,130.906C68.327,135.665 64.47,139.523 59.711,139.523C54.953,139.523 51.096,135.665 51.096,130.906Z" style="fill:white;"/>
        </g>
        <g transform="matrix(0.98702,0,0,0.98702,3.80924,144.217)">
            <rect x="59.615" y="25.079" width="12.574" height="3.994" style="fill:white;"/>
        </g>
        <g transform="matrix(0.98702,0,0,0.98702,3.80924,144.217)">
            <path d="M133.625,4.899L133.625,2.149L168.625,2.149L168.625,4.899" style="fill:white;"/>
        </g>
        <g transform="matrix(0.98702,0,0,0.98702,3.80924,144.217)">
            <path d="M54.811,179.333C52.439,179.333 50.516,177.411 50.516,175.04C50.516,172.667 52.439,170.745 54.811,170.745C57.182,170.745 59.105,172.667 59.105,175.04C59.105,177.411 57.182,179.333 54.811,179.333Z" style="fill:white;"/>
        </g>
    </g>
    <g transform="matrix(0.5,0,0,1,581.238,-2)">
        <rect x="1145.77" y="645.798" width="116.843" height="218.647" style="fill:rgb(26,32,44);"/>
    </g>
    <g transform="matrix(1,0,0,1,5.74957,0)">
        <path d="M1177.58,547.464L1282.28,645.798L1072.89,645.798L1177.58,547.464Z" style="fill:rgb(26,32,44);"/>
    </g>
    <g id="Twitter_Logo_Blue" transform="matrix(0.200067,0,0,0.200067,1183.33,354.111)">
        <g transform="matrix(1,0,0,1,-833.333,-833.333)">
            <g transform="matrix(4.16667,0,0,4.16667,0,0)">
                <path d="M153.623,301.589C247.967,301.589 299.559,223.428 299.559,155.653C299.559,153.432 299.514,151.221 299.412,149.022C309.426,141.783 318.132,132.75 325,122.465C315.809,126.547 305.919,129.299 295.544,130.539C306.134,124.191 314.264,114.143 318.098,102.167C308.186,108.042 297.213,112.315 285.53,114.616C276.171,104.647 262.841,98.412 248.091,98.412C219.763,98.412 196.792,121.382 196.792,149.699C196.792,153.725 197.243,157.638 198.122,161.394C155.495,159.251 117.695,138.84 92.4,107.805C87.991,115.383 85.453,124.191 85.453,133.584C85.453,151.38 94.509,167.089 108.278,176.279C99.865,176.02 91.96,173.708 85.047,169.862C85.036,170.076 85.036,170.291 85.036,170.516C85.036,195.36 102.719,216.098 126.186,220.801C121.879,221.973 117.345,222.605 112.665,222.605C109.361,222.605 106.147,222.278 103.023,221.68C109.553,242.058 128.487,256.887 150.939,257.305C133.381,271.062 111.267,279.26 87.235,279.26C83.096,279.26 79.014,279.024 75,278.55C97.7,293.097 124.653,301.589 153.623,301.589Z" style="fill:rgb(26,32,44);fill-rule:nonzero;"/>
            </g>
        </g>
    </g>
</svg>
